PathFileType	4	(X/Y/Z)	..\data\2015032\dynamic\2015032_C4_03.trc
DataRate	CameraRate	NumFrames	NumMarkers	Units	OrigDataRate	OrigDataStartFrame	OrigNumFrames
100.000000	100.000000	4	48	mm	100.000000	101	203
Frame#	Time	L_IAS			L_IPS			R_IPS			R_IAS			L_FTC			L_FLE			L_FAX			L_TTC			L_FAL			L_FCC			L_FM1			L_FM2			L_FM5			R_FTC			R_FLE			R_FAX			R_TTC			R_FAL			R_FCC			R_FM1			R_FM2			R_FM5			CV7			TV10			SXS			SJN			L_SIA			L_SRS			L_SAA			L_SAE			L_HLE			L_HME			L_UOA			L_RSP			L_UHE			L_HM2			L_HM5			R_SIA			R_SRS			R_SAA			R_SAE			R_HLE			R_HME			R_UOA			R_RSP			R_UHE			R_HM2			R_HM5			
		X1	Y1	Z1	X2	Y2	Z2	X3	Y3	Z3	X4	Y4	Z4	X5	Y5	Z5	X6	Y6	Z6	X7	Y7	Z7	X8	Y8	Z8	X9	Y9	Z9	X10	Y10	Z10	X11	Y11	Z11	X12	Y12	Z12	X13	Y13	Z13	X14	Y14	Z14	X15	Y15	Z15	X16	Y16	Z16	X17	Y17	Z17	X18	Y18	Z18	X19	Y19	Z19	X20	Y20	Z20	X21	Y21	Z21	X22	Y22	Z22	X23	Y23	Z23	X24	Y24	Z24	X25	Y25	Z25	X26	Y26	Z26	X27	Y27	Z27	X28	Y28	Z28	X29	Y29	Z29	X30	Y30	Z30	X31	Y31	Z31	X32	Y32	Z32	X33	Y33	Z33	X34	Y34	Z34	X35	Y35	Z35	X36	Y36	Z36	X37	Y37	Z37	X38	Y38	Z38	X39	Y39	Z39	X40	Y40	Z40	X41	Y41	Z41	X42	Y42	Z42	X43	Y43	Z43	X44	Y44	Z44	X45	Y45	Z45	X46	Y46	Z46	X47	Y47	Z47	X48	Y48	Z48	

102	1.01	696.1515502929689	943.8814697265627	-348.2240905761719	535.1435546875001	951.743835449219	-300.0936889648438	519.5998535156251	947.300476074219	-192.6565704345704	669.6035156250001	936.2368774414065	-113.6240234375	640.8605957031251	871.9006347656252	-409.7030639648439	651.3514404296876	444.0731811523439	-359.7024841308594	644.3677978515626	382.4157104492188	-357.7690734863282	699.2656860351564	378.5022888183594	-301.9960327148438	609.4795532226564	58.59677505493165	-282.6570434570313	566.0072021484376	19.53537940979004	-234.5594024658204	763.8375854492189	24.05380630493165	-226.5047302246094	758.3435668945314	30.82822799682618	-286.2455139160157	706.5117797851564	21.53857421875	-328.4234313964844	570.2167968750001	841.9283447265627	-76.79951477050783	655.8269042968751	446.1776733398439	-105.4972686767578	624.9453125000001	407.8697204589845	-105.7169723510742	678.6837768554689	364.2088317871094	-147.0547027587891	371.4701538085938	194.6854858398438	-162.1976776123047	332.4662780761719	181.4563293457032	-226.1126861572266	458.7620849609376	50.87188720703126	-173.6687164306641	447.2548828125001	68.06358337402345	-122.8750152587891	394.2910461425782	91.02351379394533	-96.18060302734378	531.2753295898439	1433.804565429688	-241.4780578613282	480.7369079589845	1205.0087890625	-236.5302429199219	662.3931274414064	1183.183715820313	-235.572006225586	631.7606201171876	1347.156494140625	-235.4859466552735	463.8529357910157	1231.055419921875	-350.4482421875001	490.4180297851564	1356.07958984375	-343.5371704101563	565.6386718750001	1367.829833984375	-428.1873168945314	611.9287719726564	1367.399169921875	-432.8132324218751	602.6638183593751	1057.970947265625	-475.0282592773439	558.3872680664064	1044.626220703125	-412.6360778808595	561.4424438476564	1024.238037109375	-455.485809326172	700.1722412109376	826.4645996093752	-423.8097229003907	660.4601440429689	831.0062255859377	-489.5480346679689	724.2435302734376	746.1696166992189	-422.8504638671876	652.5336914062501	754.5825195312501	-494.4624328613282	458.7155151367189	1241.990234375	-120.3467102050782	484.210906982422	1360.521118164063	-139.397201538086	549.4730834960939	1370.909423828125	-48.36410140991212	594.1838989257814	1373.207397460938	-36.47277450561524	576.7518310546876	1061.135620117188	-0.1247024759650231	551.9473266601564	1053.2177734375	-70.38073730468751	544.7068481445314	1031.094604492188	-25.61117172241212	694.8546142578126	839.2979125976565	-33.20125961303712	643.4756469726564	833.204772949219	20.53610420227051	728.7370605468751	755.1267089843751	-23.12032890319825	640.5032348632814	759.2785034179689	27.23329162597657	
103	1.02	702.5631103515626	943.997009277344	-349.1203002929688	541.6012573242189	952.0264892578127	-300.6654968261719	525.9822998046876	948.0019531250002	-193.2281646728516	676.1138916015626	937.162048339844	-114.5209884643555	646.7387695312501	871.7563476562502	-410.2181396484376	653.1008911132814	443.9668579101564	-360.0908813476563	645.6605834960939	382.3213195800782	-358.0538024902344	700.7847290039064	378.0889892578126	-302.4446716308594	609.4740600585939	58.68908309936525	-282.5981750488282	566.0466308593751	19.60284233093262	-234.5262756347657	763.8377685546876	23.92097663879395	-226.5623779296876	758.3185424804689	30.74350929260255	-286.3119812011719	706.4725952148439	21.41788291931153	-328.6644592285157	577.4335937500001	843.041687011719	-76.72436523437501	670.1636352539064	448.1490478515626	-105.9582748413086	639.7160644531251	409.4802856445314	-105.8490753173828	694.2890014648439	366.4090881347657	-147.3195343017578	390.8016052246095	190.6260375976563	-159.9548034667969	351.5397949218751	174.9499664306641	-223.3933105468751	482.8838195800782	49.69572067260744	-168.8064422607422	471.0826721191407	67.73777008056642	-118.4287872314453	417.7337341308595	89.82469940185548	-91.90378570556642	538.6097412109376	1434.402221679688	-242.1504211425782	487.6990356445314	1205.692138671875	-237.8970184326172	669.2285156250001	1183.50341796875	-235.811019897461	638.9099731445314	1347.615600585938	-235.5771942138672	471.8315734863282	1232.22802734375	-352.3929138183594	498.5390625000001	1356.974243164063	-344.7231750488282	574.5916748046876	1369.018798828125	-428.7286682128907	620.9045410156251	1368.57470703125	-432.7477111816407	615.1967163085939	1059.343139648438	-476.5191345214845	569.6087036132814	1045.241455078125	-415.0456542968751	573.7512817382814	1025.167358398438	-458.013641357422	713.9703369140626	828.5437622070315	-424.0557861328126	675.6541137695314	833.0321044921877	-490.7461547851564	738.7301635742189	748.5413208007814	-422.9930725097657	668.5925903320314	756.6203002929689	-496.2103576660157	464.9116210937501	1242.506469726563	-121.9630355834961	490.7118225097657	1360.94482421875	-140.6120147705078	555.2299804687501	1371.262329101563	-49.13321685791017	599.8411254882814	1373.501831054688	-36.81211471557618	581.3172607421876	1061.465209960938	-0.9514919519424441	557.3727416992189	1053.561157226563	-71.45349121093751	549.4119262695314	1031.513549804688	-26.80968284606934	699.0612792968751	839.1547851562502	-32.79645919799805	646.9282226562501	833.2586059570315	20.41001892089844	732.2640991210939	754.7697143554689	-22.39632797241211	643.5705566406251	759.3280639648439	27.06036758422852	
104	1.03	708.9195556640626	944.0653076171877	-350.0952758789063	547.9861450195314	952.2705078125002	-301.1552734375001	532.3515625000001	948.7078247070315	-193.7080993652344	682.6560058593751	938.0488891601565	-115.4554748535157	652.4268798828126	871.5458984375002	-410.7101440429689	654.8692626953126	443.8437805175782	-360.4508056640626	646.9907836914064	382.2130126953126	-358.3088378906251	702.3264770507814	377.6522827148438	-302.8580017089844	609.4863281250001	58.78137969970705	-282.5166015625001	566.1105346679689	19.67072486877442	-234.4756774902344	763.8296508789064	23.77635765075684	-226.6104583740235	758.2923583984376	30.66920852661134	-286.3756408691407	706.4420776367189	21.32207489013672	-328.8775329589844	584.7094116210939	844.1707153320315	-76.62654876708986	684.2226562500001	450.1250000000001	-106.4629821777344	654.2894287109376	410.9895324707032	-106.0090866088867	709.7120361328126	368.6753845214844	-147.6695404052735	410.7158203125001	185.6662139892578	-157.527572631836	371.2882690429688	167.5131988525391	-220.4314117431641	507.9564819335939	48.17867279052736	-164.2527618408203	495.8789367675782	66.8521194458008	-114.3060302734375	442.0691833496095	87.72848510742189	-87.79639434814455	545.9059448242189	1434.95166015625	-242.8004760742188	494.6588745117189	1206.32275390625	-239.2433166503907	676.0804443359376	1183.766723632813	-236.0530548095704	646.0336303710939	1348.036376953125	-235.6700134277344	479.8114624023439	1233.342529296875	-354.3041992187501	506.6107177734376	1357.811401367188	-345.8772888183594	583.4425048828126	1370.167724609375	-429.2437438964845	629.7828979492189	1369.730834960938	-432.6759643554689	627.6276855468751	1060.714599609375	-477.900848388672	580.8407592773439	1045.888427734375	-417.3505249023439	586.0686035156251	1026.087036132813	-460.3834838867189	727.7291259765626	830.673034667969	-424.2427673339845	690.7580566406251	835.1099243164065	-491.8093261718751	753.1749877929689	750.9573974609376	-423.044647216797	684.5574340820314	758.7244873046876	-497.7685852050782	471.1223449707032	1242.9521484375	-123.5786361694336	497.2045288085939	1361.30078125	-141.8153686523438	560.9841918945314	1371.546264648438	-49.88446426391603	605.4721679687501	1373.7353515625	-37.14339447021485	585.7916870117189	1061.746948242188	-1.771293640136719	562.7639770507814	1053.833618164063	-72.5103225708008	554.0413208007814	1031.86962890625	-28.01095771789551	703.2994995117189	839.0078125000002	-32.42376708984376	650.3906860351564	833.2856445312502	20.22501754760743	735.8576660156251	754.4507446289064	-21.72684288024903	646.6920166015626	759.3500366210939	26.79822158813477	
105	1.04	715.2272949218751	944.0682373046877	-351.1243286132813	554.2980957031251	952.4698486328127	-301.5668945312501	538.7084960937501	949.387634277344	-194.099594116211	689.2243652343751	938.8717041015627	-116.4106826782227	657.9512329101564	871.2691650390627	-411.175506591797	656.7044067382814	443.696014404297	-360.7720947265626	648.4022827148439	382.0849304199219	-358.5269165039063	703.9239501953126	377.1875610351563	-303.2240295410157	609.5197143554689	58.87049102783205	-282.4082641601563	566.1978149414064	19.74109649658203	-234.4063110351563	763.8167724609376	23.61594200134278	-226.6482086181641	758.2741699218751	30.60496330261231	-286.4315795898438	706.4208984375001	21.24872016906739	-329.0592346191407	592.0271606445314	845.272155761719	-76.53050994873048	698.0054931640626	452.0652770996095	-106.9926528930664	668.6834106445314	412.3612060546876	-106.1825027465821	724.9356079101564	370.9872436523438	-148.0980834960938	431.1976013183595	179.9419860839844	-154.9458312988282	391.7231750488282	159.3121185302735	-217.2777404785157	533.8317871093751	46.4131202697754	-160.0340728759766	521.4849243164064	65.48842620849611	-110.529769897461	467.1566162109376	84.86511993408205	-83.89559173583986	553.1823120117189	1435.440551757813	-243.4255371093751	501.6178588867189	1206.892456054688	-240.5626068115235	682.9521484375001	1183.953857421875	-236.2990417480469	653.1410522460939	1348.400146484375	-235.7662811279297	487.7868041992189	1234.3837890625	-356.1694335937501	514.6402587890626	1358.580322265625	-346.9981079101563	592.1960449218751	1371.24609375	-429.7362670898439	638.5736083984376	1370.834838867188	-432.6016540527345	639.9257812500001	1062.055541992188	-479.1773986816407	592.0590820312501	1046.53076171875	-419.5364074707032	598.3729858398439	1026.96044921875	-462.5914611816407	741.4429931640626	832.834655761719	-424.373992919922	705.7460937500001	837.2061767578127	-492.7332153320314	767.5925292968751	753.4068603515626	-423.0121459960939	700.4158935546876	760.8558349609376	-499.1256408691407	477.3518981933595	1243.315307617188	-125.1900939941407	503.703338623047	1361.582763671875	-143.0001983642578	566.7595825195314	1371.739624023438	-50.61130905151369	611.0987548828126	1373.881225585938	-37.46526336669923	590.1875610351564	1061.95654296875	-2.577429056167603	568.1169433593751	1054.012573242188	-73.53826904296876	558.6041870117189	1032.140747070313	-29.20068740844727	707.5559692382814	838.8273925781252	-32.0930519104004	653.8768310546876	833.2604980468752	19.97873306274414	739.5286865234376	754.1466674804689	-21.12108993530274	649.8845214843751	759.3198242187501	26.44834136962891	
